<svg width="524" height="176" viewBox="0 0 524 176" fill="none" xmlns="http://www.w3.org/2000/svg"><path d="M1.32764 33H513.328H1.32764" stroke="#262A33" stroke-width="1.062" stroke-dasharray="3.19 3.19"/><path d="M1.32764 77H513.328H1.32764" stroke="#262A33" stroke-width="1.062" stroke-dasharray="3.19 3.19"/><path d="M1.32764 121H513.328H1.32764" stroke="#262A33" stroke-width="1.062" stroke-dasharray="3.19 3.19"/><path d="M1.32764 165H513.328H1.32764" stroke="#262A33" stroke-width="1.062"/><path d="M1.32764 154C42.2876 146.667 79.8343 128.333 113.968 99C148.101 69.6667 182.234 75.1667 216.368 115.5C250.501 155.833 288.048 139.333 329.008 66C369.968 -7.33331 404.101 -14.6666 431.408 44C458.714 102.667 486.021 96.0667 513.328 24.2V176H1.32764V154Z" fill="url(#paint0_linear_1_10280)"/><path d="M1.32764 154C42.2876 146.667 79.8343 128.333 113.968 99C148.101 69.6667 182.234 75.1667 216.368 115.5C250.501 155.833 288.048 139.333 329.008 66C369.968 -7.33331 404.101 -14.6666 431.408 44C458.714 102.667 486.021 96.0667 513.328 24.2" stroke="url(#paint1_linear_1_10280)" stroke-width="2.655" stroke-linecap="round"/><path d="M508.208 24.2C508.208 27.2355 510.502 29.7 513.328 29.7C516.153 29.7 518.448 27.2355 518.448 24.2C518.448 21.1644 516.153 18.7 513.328 18.7C510.502 18.7 508.208 21.1644 508.208 24.2Z" fill="#4EDEA3"/><path opacity="0.3" d="M503.087 24.2C503.087 30.271 507.676 35.2 513.327 35.2C518.979 35.2 523.567 30.271 523.567 24.2C523.567 18.1289 518.979 13.2 513.327 13.2C507.676 13.2 503.087 18.1289 503.087 24.2Z" fill="#4EDEA3"/><defs><linearGradient id="paint0_linear_1_10280" x1="1.32764" y1="4.88892" x2="1.32764" y2="176" gradientUnits="userSpaceOnUse"><stop stop-color="#4EDEA3" stop-opacity="0.25"/><stop offset="0.6" stop-color="#3B82F6" stop-opacity="0.08"/><stop offset="1" stop-color="#0F131C" stop-opacity="0"/></linearGradient><linearGradient id="paint1_linear_1_10280" x1="1.32764" y1="4.88892" x2="513.328" y2="4.88892" gradientUnits="userSpaceOnUse"><stop stop-color="#38BDF8"/><stop offset="0.5" stop-color="#60A5FA"/><stop offset="1" stop-color="#4EDEA3"/></linearGradient></defs></svg>