<svg width="14" height="14" viewBox="0 0 14 14" fill="none" xmlns="http://www.w3.org/2000/svg"><path d="M10.125 9.75V3.75L7.125 6.75L10.125 9.75ZM1.5 13.5C1.0875 13.5 0.734375 13.3531 0.440625 13.0594C0.146875 12.7656 0 12.4125 0 12V1.5C0 1.0875 0.146875 0.734375 0.440625 0.440625C0.734375 0.146875 1.0875 0 1.5 0H12C12.4125 0 12.7656 0.146875 13.0594 0.440625C13.3531 0.734375 13.5 1.0875 13.5 1.5V12C13.5 12.4125 13.3531 12.7656 13.0594 13.0594C12.7656 13.3531 12.4125 13.5 12 13.5H1.5ZM3.75 12V1.5H1.5V12H3.75ZM5.25 12H12V1.5H5.25V12ZM3.75 12H1.5H3.75Z" fill="#8C909F"/></svg>